<svg xmlns="http://www.w3.org/2000/svg" viewBox="0 0 100 100">
  <ellipse cx="51" cy="93" rx="26" ry="5" fill="rgba(0,0,0,0.15)"/>
  <path d="M 47 20 C 45 11 53 7 55 14" stroke="#5C3010" stroke-width="3" fill="none" stroke-linecap="round"/>
  <ellipse cx="50" cy="56" rx="36" ry="32" fill="#B87530"/>
  <ellipse cx="50" cy="47" rx="33" ry="23" fill="#D4913A"/>
  <ellipse cx="36" cy="38" rx="11" ry="6.5" fill="#F2CA72" opacity="0.6" transform="rotate(-22 36 38)"/>
  <path d="M 16 57 C 30 48 70 48 84 57" stroke="#6B3810" stroke-width="2.8" fill="none" stroke-linecap="round"/>
  <path d="M 50 24 C 52 36 52 46 50 57" stroke="#6B3810" stroke-width="2" fill="none" stroke-linecap="round"/>
  <path d="M 50 57 C 48 68 48 76 50 88" stroke="#6B3810" stroke-width="2" fill="none" stroke-linecap="round"/>
  <path d="M 20 44 C 28 37 37 39 40 46" stroke="#6B3810" stroke-width="1.6" fill="none" stroke-linecap="round"/>
  <path d="M 22 33 C 31 27 40 30 43 37" stroke="#6B3810" stroke-width="1.6" fill="none" stroke-linecap="round"/>
  <path d="M 80 44 C 72 37 63 39 60 46" stroke="#6B3810" stroke-width="1.6" fill="none" stroke-linecap="round"/>
  <path d="M 78 33 C 69 27 60 30 57 37" stroke="#6B3810" stroke-width="1.6" fill="none" stroke-linecap="round"/>
  <path d="M 20 71 C 28 78 38 75 40 67" stroke="#6B3810" stroke-width="1.6" fill="none" stroke-linecap="round"/>
  <path d="M 80 71 C 72 78 62 75 60 67" stroke="#6B3810" stroke-width="1.6" fill="none" stroke-linecap="round"/>
  <ellipse cx="50" cy="56" rx="36" ry="32" fill="none" stroke="#5C2A0A" stroke-width="2.5"/>
</svg>
